# xmcd
#
# Track frame offsets:
#       210
#       26427
#       50250
#       69148
#       102525
#       131067
#       162742
#       184943
#       206677
#       230256
#       269667
#       293171
#
# Disc length: 4317 seconds
#
# Revision: 0
# Processed by: cddbd v1.4PL0 Copyright (c) Steve Scherf et al.
# Submitted via: CD-DA_X-Tractor v0.21
#
DISCID=b310db0c
DTITLE=Johnny B. Moore - Born In Clarksdale, Mississipp
DYEAR=1900
DGENRE=
TTITLE0=Elmore James Medley
TTITLE1=Back Door Man
TTITLE2=Crosscut Saw
TTITLE3=Don't Make Me Pay For His Mistakes
TTITLE4=Leanin' Tree
TTITLE5=Dangerous
TTITLE6=Help Me
TTITLE7=170 Pounds Of Joy
TTITLE8=That's All I Need
TTITLE9=Legends Of The Blues
TTITLE10=Saddle My Pony
TTITLE11=Goin' Away Baby
EXTD=
EXTT0=
EXTT1=
EXTT2=
EXTT3=
EXTT4=
EXTT5=
EXTT6=
EXTT7=
EXTT8=
EXTT9=
EXTT10=
EXTT11=
PLAYORDER=
